<svg id="Слой_1" data-name="Слой 1" xmlns="http://www.w3.org/2000/svg" viewBox="0 0 37.96 17.5"><defs><style>.cls-1{fill:#fff;}.cls-2{fill:#60ba19;}</style></defs><path class="cls-1" d="M21.29,4.49h1.56V6.75a1.9,1.9,0,0,1-.42,1.32,1.63,1.63,0,0,1-1.24.46,1.61,1.61,0,0,1-1.25-.47,1.88,1.88,0,0,1-.42-1.32V3a1.88,1.88,0,0,1,.42-1.32,1.61,1.61,0,0,1,1.25-.47,1.6,1.6,0,0,1,1.24.47A1.88,1.88,0,0,1,22.85,3v.7H21.8V3a.76.76,0,0,0-.16-.54.57.57,0,0,0-.42-.16.57.57,0,0,0-.43.16.77.77,0,0,0-.15.54V6.82a.79.79,0,0,0,.15.54.61.61,0,0,0,.43.15.6.6,0,0,0,.42-.15.76.76,0,0,0,.16-.54V5.51h-.51Z"/><path class="cls-1" d="M25.68,8.45a.57.57,0,0,0,0-.14s0-.09,0-.15a1.4,1.4,0,0,1,0-.23c0-.1,0-.22,0-.36V6.45a1.14,1.14,0,0,0-.17-.7.69.69,0,0,0-.56-.2h-.39v2.9H23.34V1.32H25a1.71,1.71,0,0,1,1.27.41A1.71,1.71,0,0,1,26.69,3v.56A1.44,1.44,0,0,1,26,5a1,1,0,0,1,.58.56,2.45,2.45,0,0,1,.16,1v1.1c0,.18,0,.33,0,.46a1.53,1.53,0,0,0,.1.41ZM24.46,2.34V4.53h.44a.74.74,0,0,0,.49-.16.79.79,0,0,0,.18-.59V3.07a.94.94,0,0,0-.14-.56A.52.52,0,0,0,25,2.34Z"/><path class="cls-1" d="M28.41,4.33H30v1H28.41V7.43h1.93v1H27.29V1.32h3.05v1H28.41Z"/><path class="cls-1" d="M32,4.33h1.54v1H32V7.43h1.93v1H30.83V1.32h3.05v1H32Z"/><path class="cls-1" d="M38,8.45h-1.2V6.16a3.49,3.49,0,0,0,0-.57.54.54,0,0,0-.16-.26.48.48,0,0,0-.32-.11c-.42,0-.63.32-.63.94V8.45h-1.2V4.37h1.12v.69a1.46,1.46,0,0,1,.54-.63,1.45,1.45,0,0,1,1.52.17A1.61,1.61,0,0,1,38,5.83Z"/><path class="cls-1" d="M20.94,13.38l-.33.62v2.08H19.55V9.3h1.06v3L22,9.3h1l-1.48,3,1.48,3.76H22Z"/><path class="cls-1" d="M27.05,16.08H26l-.19-1.23H24.48l-.18,1.23h-1L24.41,9.3H26Zm-2.43-2.15h1l-.52-3.43Z"/><path class="cls-1" d="M27.21,10.93a1.83,1.83,0,0,1,.4-1.26,1.79,1.79,0,0,1,2.35,0,1.83,1.83,0,0,1,.39,1.26v.26h-1v-.33a.74.74,0,0,0-.14-.52.58.58,0,0,0-.78,0,.79.79,0,0,0-.14.52,1.26,1.26,0,0,0,.15.62,3.56,3.56,0,0,0,.39.5c.16.16.32.32.5.47a4.93,4.93,0,0,1,.5.52,3.12,3.12,0,0,1,.39.64,2.17,2.17,0,0,1,.15.84,1.83,1.83,0,0,1-.4,1.27,1.54,1.54,0,0,1-1.19.44,1.52,1.52,0,0,1-1.18-.44,1.83,1.83,0,0,1-.4-1.27V14h1v.54a.71.71,0,0,0,.15.51.55.55,0,0,0,.4.15.56.56,0,0,0,.41-.15.67.67,0,0,0,.15-.51,1.27,1.27,0,0,0-.16-.62,2.51,2.51,0,0,0-.39-.5c-.15-.16-.32-.32-.5-.48a4.74,4.74,0,0,1-.49-.51,2.44,2.44,0,0,1-.39-.64A2.18,2.18,0,0,1,27.21,10.93Z"/><path class="cls-1" d="M30.76,10.93a1.83,1.83,0,0,1,.39-1.26,1.79,1.79,0,0,1,2.35,0,1.83,1.83,0,0,1,.39,1.26v.26h-1v-.33a.79.79,0,0,0-.14-.52.53.53,0,0,0-.39-.15.54.54,0,0,0-.4.15.79.79,0,0,0-.14.52,1.17,1.17,0,0,0,.16.62,2.87,2.87,0,0,0,.38.5l.5.47a4.1,4.1,0,0,1,.5.52,2.44,2.44,0,0,1,.39.64,2.17,2.17,0,0,1,.15.84,1.83,1.83,0,0,1-.4,1.27,1.82,1.82,0,0,1-2.37,0,1.83,1.83,0,0,1-.4-1.27V14h1v.54a.71.71,0,0,0,.15.51.61.61,0,0,0,.8,0,.67.67,0,0,0,.15-.51,1.17,1.17,0,0,0-.16-.62,2.87,2.87,0,0,0-.38-.5c-.16-.16-.32-.32-.5-.48a4,4,0,0,1-.5-.51,3.12,3.12,0,0,1-.39-.64A2.19,2.19,0,0,1,30.76,10.93Z"/><path class="cls-1" d="M38,16.08H36.89l-.19-1.23H35.39l-.18,1.23h-1L35.32,9.3h1.56Zm-2.43-2.15h1L36,10.5Z"/><rect class="cls-1" width="17.5" height="17.5" rx="5.16"/><path class="cls-2" d="M13.73,8.33v6.44H12.44a9.66,9.66,0,0,0-.4-1.38A4.07,4.07,0,0,1,8.75,15a4.38,4.38,0,0,1-3.67-1.69A6.92,6.92,0,0,1,3.77,8.91a7.17,7.17,0,0,1,1.4-4.62A4.59,4.59,0,0,1,9,2.54a4.61,4.61,0,0,1,3.25,1.13,4.92,4.92,0,0,1,1.51,3L11,7C10.83,5.57,10.13,4.84,9,4.84a1.9,1.9,0,0,0-1.74,1,6.11,6.11,0,0,0-.58,3,5.23,5.23,0,0,0,.63,2.83,2,2,0,0,0,1.81,1,2.07,2.07,0,0,0,1.36-.49A2,2,0,0,0,11,10.58H8.77V8.33Z"/></svg>